<?xml version="1.0" encoding="utf-8"?>
<!-- Generator: Adobe Illustrator 22.0.1, SVG Export Plug-In . SVG Version: 6.00 Build 0)  -->
<svg version="1.1" id="Layer_1" xmlns="http://www.w3.org/2000/svg" xmlns:xlink="http://www.w3.org/1999/xlink" x="0px" y="0px"
	 viewBox="0 0 1422 384" style="enable-background:new 0 0 1422 384;" xml:space="preserve">
<style type="text/css">
	.st0{fill:#7696EE;}
	.st1{fill:none;}
</style>
<g>
	<polygon class="st0" points="415.9,168.2 443.1,168.2 443.1,236.2 469,236.2 469,168.2 496,168.2 496,146.8 415.9,146.8 	"/>
	<g>
		<polygon class="st1" points="553.2,202.3 570.6,202.3 562.1,172.3 		"/>
		<path class="st0" d="M551.6,146.8L516,236.2h27.7l5.6-17.5h25.3l5.8,17.5h27.6l-35.4-89.4H551.6z M553.2,202.3l8.8-30l8.5,30
			H553.2z"/>
	</g>
	<g>
		<path class="st1" d="M685.8,170.2c-1.6-1.4-3.3-2-4.9-2h-13.2v19.1h13.9c1.6,0,3.1-0.7,4.5-2.1c1.4-1.4,2.1-3.9,2.1-7.5
			C688.2,174.1,687.4,171.5,685.8,170.2z"/>
		<path class="st0" d="M705.8,156.6c-2.8-2.9-6.2-5.2-10.2-7.1c-3.9-1.8-8.3-2.7-12.9-2.7h-41.2v89.4h26.2v-27.5h15.7
			c4.7,0,9-0.8,12.8-2.6c3.9-1.7,7.2-4,10-6.9c2.7-2.9,4.9-6.2,6.4-10c1.5-3.7,2.3-7.6,2.3-11.5c0-3.8-0.8-7.5-2.4-11.3
			C710.8,162.8,708.6,159.4,705.8,156.6z M686.1,185.2c-1.4,1.4-2.9,2.1-4.5,2.1h-13.9v-19.1h13.2c1.6,0,3.2,0.7,4.9,2
			c1.6,1.3,2.4,3.8,2.4,7.5C688.2,181.4,687.5,183.9,686.1,185.2z"/>
	</g>
	<polygon class="st0" points="777,146.8 750.9,146.8 750.9,236.2 820.3,236.2 820.3,214.8 777,214.8 	"/>
	<polygon class="st0" points="878.7,185.4 861.7,146.8 833.6,146.8 865.7,206.3 865.7,236.2 891.6,236.2 891.6,206.6 924.3,146.8 
		896.1,146.8 	"/>
	<polygon class="st0" points="951,168.2 978.2,168.2 978.2,236.2 1004,236.2 1004,168.2 1031.1,168.2 1031.1,146.8 951,146.8 	"/>
	<rect x="1067.1" y="146.8" class="st0" width="26.7" height="89.4"/>
	<path class="st0" d="M1189.9,209.8c-1.2,1.4-2.5,2.5-4,3.4c-1.4,0.9-3,1.5-4.6,1.9c-1.6,0.3-3.1,0.6-4.7,0.6c-3,0-5.7-0.7-8.1-2
		c-2.3-1.3-4.3-3.1-6-5.2s-2.9-4.7-3.7-7.5c-0.8-2.9-1.3-5.8-1.3-9c0-2.8,0.4-5.5,1.1-8.4c0.7-2.8,1.8-5.4,3.4-7.6
		c1.5-2.2,3.5-4,5.9-5.4c2.3-1.4,5.2-2.1,8.5-2.1c1.4,0,2.9,0.2,4.7,0.5c1.6,0.3,3.3,0.9,4.8,1.8c1.5,0.8,2.9,2,4.2,3.4
		c1.3,1.5,2.3,3.3,3.2,5.5l19.9-13.4c-3-5.9-7.7-10.6-14-14.2c-6.3-3.6-13.6-5.4-22.1-5.4c-7.2,0-13.6,1.3-19.3,3.9
		c-5.6,2.6-10.5,6-14.4,10.2c-3.9,4.2-7,8.9-9,14.2c-2.1,5.3-3,10.7-3,16.2c0,5.7,1.1,11.3,3.3,16.9c2.2,5.5,5.3,10.5,9.3,14.9
		c3.9,4.4,8.7,7.9,14.2,10.5c5.6,2.7,11.6,4,18.1,4c3.7,0,7.5-0.5,11.5-1.4c3.9-0.9,7.6-2.3,11.1-4c3.5-1.8,6.5-4,9.2-6.6
		c2.8-2.6,4.8-5.5,6.1-8.8l-21.2-12C1192,206.8,1191.1,208.5,1189.9,209.8z"/>
	<path class="st0" d="M1314.2,190.5c-2.5-2.1-5.5-3.9-9-5.4c-3.5-1.5-7.4-2.9-11.8-4.2c-2.7-0.9-5.3-1.6-7.4-2.2
		c-2.2-0.6-4-1.2-5.6-1.8c-1.5-0.6-2.7-1.3-3.5-2.1c-0.8-0.7-1.2-1.7-1.2-2.9c0-1.6,0.7-2.8,2.1-3.4c1.4-0.7,3.2-1,5.6-1
		c2.8,0,5.8,0.4,8.7,1.3c3,0.9,5.7,1.8,8.1,2.8c2.8,1.2,5.6,2.6,8.3,4.1l11.3-20.4c-2.2-1-4.5-2.1-7.2-3.2c-2.7-1.1-5.5-2.2-8.6-3.2
		c-3.1-1-6.2-1.8-9.5-2.4c-3.3-0.7-6.7-1-10.2-1c-4.7,0-9.2,0.7-13.4,2c-4.2,1.3-8,3.3-11.3,5.8c-3.3,2.5-5.9,5.7-7.8,9.5
		c-2,3.8-2.9,8.2-2.9,13.2c0,3.3,0.5,6.2,1.4,8.7c0.9,2.6,2.4,4.8,4.4,6.8c2,2,4.4,3.8,7.5,5.3c3,1.6,6.6,3.1,10.8,4.4
		c2.8,0.9,5.5,1.7,8.1,2.4c2.5,0.7,4.8,1.3,6.7,2c2,0.7,3.5,1.5,4.6,2.3c1.1,0.9,1.7,2,1.7,3.2c0,1.2-0.5,2.1-1.7,2.9
		c-1.1,0.7-3.1,1.1-5.9,1.1c-3.8,0-7.4-0.5-11.1-1.5s-6.9-2.1-9.7-3.4c-3.4-1.4-6.6-3.1-9.7-5l-11.3,21.7c2.9,1.6,6,3.1,9.3,4.3
		c3.4,1.3,6.8,2.3,10.4,3.3c3.6,0.9,7.3,1.7,10.9,2.2c3.7,0.5,7.3,0.7,10.7,0.7c4.4,0,8.7-0.5,13-1.5c4.3-1,8.2-2.6,11.6-4.8
		c3.4-2.2,6.2-5.1,8.3-8.8c2.1-3.7,3.1-8.3,3.1-13.7c0-4.2-0.7-7.8-2-10.8C1318.6,195,1316.7,192.5,1314.2,190.5z"/>
</g>
<g>
	<polygon class="st0" points="147.7,171.1 181.1,171.1 181.1,236.9 206.4,236.9 206.4,146.1 147.7,146.1 	"/>
	<polygon class="st0" points="258.4,146.1 233.1,146.1 233.1,236.9 291.8,236.9 291.8,212 258.4,212 	"/>
	<path class="st0" d="M99.8,284.9h239.8V98.1H99.8V284.9z M108.5,106.9H331v169.2H108.5V106.9z"/>
</g>
</svg>
